{"title":"Jai Ho (2014) - Official Theatrical Trailer Salman Khan HD 1080p","uid":9349389,"size":51383680,"categoryP":"video","categoryS":"movie_clips","magnet":"?xt=urn:btih:eb640827448a6555b9d56a5a5c198d375e78a2e5&amp;dn=Jai+Ho+%282014%29+-+Official+Theatrical+Trailer+Salman+Khan+HD+1080p&amp;tr=udp%3A%2F%2Ftracker.openbittorrent.com%3A80&amp;tr=udp%3A%2F%2Fopen.demonii.com%3A1337&amp;tr=udp%3A%2F%2Ftracker.coppersurfer.tk%3A6969&amp;tr=udp%3A%2F%2Fexodus.desync.com%3A6969","seeders":0,"leechers":0,"uploader":"Palash995","files":1,"time":1387094484,"description":"[center][b][size=200][color=red]Without Any reason..Don't Dislike the torrent.....please check and give your feedback[/color][/size]\n\n[img]http://i843.photobucket.com/albums/zz358/0Krish0/qiWyCf1pvj_zps682a8ccb.png[/img]\n\n[size=100][color=red]Jai Ho (2014) - Official Theatrical Trailer Salman Khan HD 1080p[/color][/size]\n\n\n\nCheck out the official theatrical trailer of &quot;Jai Ho&quot; a Sohail Khan directorial film featuring Salman Khan, Tabu, Daisy Shah &amp; Sana Khan. The film is produced by Sunill Lulla &amp; Sohail Khan &amp; is all set to release in theatres on 24th January, 2014.\n\nScreenshots:-\n\n\n\n\n\nMedia Info:-\n\nGeneral\nComplete name                            : Jai Ho (2014) - Official Theatrical Trailer Salman Khan HD 1080p {DAKU RG} {GreatPalash}.mp4\nFormat                                   : MPEG-4\nFormat profile                           : Base Media\nCodec ID                                 : isom\nFile size                                : 49.0 MiB\nDuration                                 : 1mn 56s\nOverall bit rate mode                    : Variable\nOverall bit rate                         : 3 528 Kbps\nWriting application                      : Lavf53.31.100\n\nVideo\nID                                       : 1\nFormat                                   : AVC\nFormat/Info                              : Advanced Video Codec\nFormat profile                           : &lt;a class=&quot;__cf_email__&quot; href=&quot;/cdn-cgi/l/email-protection&quot; data-cfemail=&quot;ace4c5cbc4ece098829d&quot;&gt;[email&amp;#160;protected]&lt;/a&gt;&lt;script data-cfhash='f9e31' type=&quot;text/javascript&quot;&gt;\n/* &lt;![CDATA[ */!function(){try{var t=&quot;currentScript&quot;in document?document.currentScript:function(){for(var t=document.getElementsByTagName(&quot;script&quot;),e=t.length;e--;)if(t[e].getAttribute(&quot;data-cfhash&quot;))return t[e]}();if(t&amp;&amp;t.previousSibling){var e,r,n,i,c=t.previousSibling,a=c.getAttribute(&quot;data-cfemail&quot;);if(a){for(e=&quot;&quot;,r=parseInt(a.substr(0,2),16),n=2;a.length-n;n+=2)i=parseInt(a.substr(n,2),16)^r,e+=String.fromCharCode(i);e=document.createTextNode(e),c.parentNode.replaceChild(e,c)}t.parentNode.removeChild(t);}}catch(u){}}()/* ]]&gt; */&lt;/script&gt;\nFormat settings, CABAC                   : Yes\nFormat settings, ReFrames                : 3 frames\nCodec ID                                 : avc1\nCodec ID/Info                            : Advanced Video Coding\nDuration                                 : 1mn 56s\nBit rate mode                            : Variable\nBit rate                                 : 3 395 Kbps\nMaximum bit rate                         : 19.2 Mbps\nWidth                                    : 1 920 pixels\nHeight                                   : 1 080 pixels\nDisplay aspect ratio                     : 16:9\nFrame rate mode                          : Variable\nFrame rate                               : 24.000 fps\nMinimum frame rate                       : 23.983 fps\nMaximum frame rate                       : 24.031 fps\nStandard                                 : NTSC\nColor space                              : YUV\nChroma subsampling                       : 4:2:0\nBit depth                                : 8 bits\nScan type                                : Progressive\nBits/(Pixel*Frame)                       : 0.068\nStream size                              : 47.2 MiB (96%)\nColor primaries                          : BT.709\nTransfer characteristics                 : BT.709\nMatrix coefficients                      : BT.709\n\nAudio\nID                                       : 2\nFormat                                   : AAC\nFormat/Info                              : Advanced Audio Codec\nFormat profile                           : LC\nCodec ID                                 : 40\nDuration                                 : 1mn 56s\nBit rate mode                            : Constant\nBit rate                                 : 126 Kbps\nChannel(s)                               : 2 channels\nChannel positions                        : Front: L R\nSampling rate                            : 44.1 KHz\nCompression mode                         : Lossy\nStream size                              : 1.74 MiB (4%)\n\n[IMG]http://imageshack.us/a/img89/4822/zka.gif[/IMG]\n\n[IMG]http://imageshack.us/a/img200/185/tj8.gif[/IMG]\n\n[IMG]http://imageshack.us/a/img593/9603/ua8.gif[/IMG]\n\n[IMG]http://imageshack.us/a/img707/5608/ysmp.png[/IMG][/b][/center]","torrent":{"xt":"urn:btih:eb640827448a6555b9d56a5a5c198d375e78a2e5","amp;dn":"Jai+Ho+%282014%29+-+Official+Theatrical+Trailer+Salman+Khan+HD+1080p","amp;tr":["udp%3A%2F%2Ftracker.openbittorrent.com%3A80","udp%3A%2F%2Fopen.demonii.com%3A1337","udp%3A%2F%2Ftracker.coppersurfer.tk%3A6969","udp%3A%2F%2Fexodus.desync.com%3A6969"],"infoHash":"eb640827448a6555b9d56a5a5c198d375e78a2e5","infoHashBuffer":{"type":"Buffer","data":[235,100,8,39,68,138,101,85,185,213,106,90,92,25,141,55,94,120,162,229]},"announce":[],"urlList":[]}}